<?xml version="1.0" standalone="no"?><!DOCTYPE svg PUBLIC "-//W3C//DTD SVG 1.1//EN" "http://www.w3.org/Graphics/SVG/1.1/DTD/svg11.dtd"><svg t="1597389837100" class="icon" viewBox="0 0 1024 1024" version="1.1" xmlns="http://www.w3.org/2000/svg" p-id="2992" xmlns:xlink="http://www.w3.org/1999/xlink" width="200" height="200"><defs><style type="text/css"></style></defs><path d="M972.755004 815.92032H491.701982c-19.498096 0-35.396543 15.798457-35.396543 35.396544s15.798457 35.396543 35.396543 35.396543h481.053022c19.498096 0 35.396543-15.798457 35.396544-35.396543S992.2531 815.92032 972.755004 815.92032zM972.755004 653.236207H604.890929c-19.498096 0-35.396543 15.798457-35.396544 35.396544s15.798457 35.396543 35.396544 35.396543h367.864075c19.498096 0 35.396543-15.798457 35.396544-35.396543s-15.898447-35.396543-35.396544-35.396544zM682.683332 525.848648c0 19.498096 15.798457 35.396543 35.396543 35.396543h254.675129c19.498096 0 35.396543-15.798457 35.396544-35.396543s-15.798457-35.396543-35.396544-35.396544H718.079875c-19.498096 0.09999-35.396543 15.898447-35.396543 35.396544zM370.913778 869.615077l461.254956-639.437555C857.966214 194.680988 849.966995 144.785861 814.370472 118.98838L671.084464 15.198516C635.587931-10.598965 585.692803-2.699736 559.895323 32.996778L74.54272 705.931061a79.012284 79.012284 0 0 0-14.798554 39.796114l-19.998047 230.077532c-1.399863 15.598477 5.399473 30.497022 18.098232 39.696123 7.699248 5.599453 16.698369 8.49917 25.897471 8.49917 5.899424 0 11.798848-1.199883 17.398301-3.599648l212.37926-90.591154c13.298701-5.599453 24.797578-14.798555 33.396738-26.597402l23.397716-32.496827c0.19998-0.19998 0.399961-0.299971 0.499951-0.499951 0-0.299971 0-0.499951 0.09999-0.599941zM617.189728 74.392735c1.699834-2.399766 4.39957-3.699639 7.199297-3.699639 1.799824 0 3.599648 0.599941 5.199492 1.699834l143.286007 103.889855c3.999609 2.899717 4.899522 8.49917 1.899814 12.498779L334.017381 799.821892 176.33278 685.533053 617.189728 74.392735zM285.822088 864.515575l-171.883215 73.292842 16.198418-186.081828c0.09999-1.599844 0.699932-3.099697 1.699834-4.39957l3.199688-4.399571 157.684601 114.288839-3.199688 4.399571c-0.999902 1.299873-2.299775 2.299775-3.699638 2.899717z" p-id="2993"></path></svg>