<svg t="1588131590232" class="icon" viewBox="0 0 1024 1024" version="1.1" xmlns="http://www.w3.org/2000/svg" p-id="1649" width="200" height="200"><path d="M804.344 15.21H163.21v930.274h641.134c30.296 0 54.866-24.562 54.866-54.866V70.078c0-30.304-24.57-54.868-54.866-54.868z m0 0" fill="#3E4C56" p-id="1650"></path><path d="M385.328 749.946h276.618v258.85H385.328z m0 0" fill="#5EB3DD" p-id="1651"></path><path d="M385.328 749.946h102.062v258.85h-102.06z m0 0" fill="#369AC1" p-id="1652"></path><path d="M279.22 453.828c26.32-14.594 59.476-5.1 74.054 21.212 18.194 32.788 20.43 49.03 20.43 49.03v-255.96a47.56 47.56 0 0 1 13.976-33.734 47.56 47.56 0 0 1 33.734-13.978c26.336 0 47.688 21.344 47.712 47.672v-60.04c0-26.35 21.36-47.71 47.71-47.71s47.72 21.36 47.72 47.712v74.398c0-26.344 21.358-47.712 47.71-47.712s47.71 21.36 47.71 47.712v96.632c0-26.352 21.36-47.72 47.712-47.72s47.72 21.368 47.72 47.72v227.868c0 102.6-65.822 221.86-182.338 221.86h-142.116c-157.868 0-158.914-218.594-158.914-218.594s0.03-56.954-14.024-82.306c-14.602-26.304-5.11-59.46 21.202-74.06z m0 0" fill="#FFDCB6" p-id="1653"></path><path d="M389.554 617.82a15.854 15.854 0 0 0 15.86-15.852v-333.86a47.56 47.56 0 0 1 13.976-33.734 47.7 47.7 0 0 1 17.876-11.264 47.57 47.57 0 0 0-15.852-2.712 47.56 47.56 0 0 0-33.734 13.978 47.56 47.56 0 0 0-13.976 33.734v333.86a15.852 15.852 0 0 0 15.85 15.85z m0 0M484.976 527.328a15.852 15.852 0 0 0 15.852-15.852V208.032a47.536 47.536 0 0 1 13.984-33.736 47.7 47.7 0 0 1 17.876-11.264 47.57 47.57 0 0 0-15.852-2.712 47.56 47.56 0 0 0-33.734 13.976 47.56 47.56 0 0 0-13.976 33.736v303.444a15.852 15.852 0 0 0 15.85 15.852z m0 0M580.406 512.126a15.86 15.86 0 0 0 15.852-15.86V282.43a47.556 47.556 0 0 1 13.976-33.726 47.684 47.684 0 0 1 17.884-11.274 47.58 47.58 0 0 0-15.86-2.712c-13.164 0-25.086 5.336-33.734 13.978-8.64 8.648-13.978 20.57-13.978 33.734v213.836a15.86 15.86 0 0 0 15.86 15.86z m0 0M675.828 534.586a15.86 15.86 0 0 0 15.86-15.86v-139.664a47.56 47.56 0 0 1 13.976-33.734 47.7 47.7 0 0 1 17.876-11.266 47.57 47.57 0 0 0-15.852-2.71 47.528 47.528 0 0 0-33.734 13.976 47.556 47.556 0 0 0-13.978 33.726v139.672a15.86 15.86 0 0 0 15.852 15.86z m0 0" fill="#EDC59D" p-id="1654"></path><path d="M303.742 610.196s0.04-56.954-14.024-82.306c-14.592-26.304-5.1-59.46 21.212-74.054a54.31 54.31 0 0 1 10.546-4.476c-13.616-4.14-28.828-2.978-42.258 4.476-26.312 14.594-35.804 47.75-21.21 74.054 14.062 25.352 14.024 82.306 14.024 82.306s1.046 218.594 158.92 218.594h31.712c-157.874 0-158.92-218.594-158.92-218.594z m0 0" fill="#EDC59D" p-id="1655"></path><path d="M351.304 181.82l-64.74-55.492L221.82 181.82V15.21h129.484z m0 0" fill="#FC445F" p-id="1656"></path><path d="M859.204 181.11c8.398 0 15.21-6.806 15.21-15.204V70.08C874.414 31.44 842.976 0 804.336 0H163.21A15.214 15.214 0 0 0 148 15.21v930.274c0 8.4 6.812 15.212 15.21 15.212H370.12v48.094a15.208 15.208 0 0 0 30.414 0V841.28A169.138 169.138 0 0 0 430.946 844h142.124c26 0 50.836-5.64 73.672-16.414v181.204a15.208 15.208 0 1 0 30.414 0v-48.094h127.18c38.64 0 70.078-31.44 70.078-70.08V226.744c0-8.4-6.812-15.21-15.21-15.21a15.214 15.214 0 0 0-15.212 15.21V890.62c0 21.866-17.788 39.664-39.656 39.664h-127.18v-120.986c15.906-11.842 30.39-26.578 43.07-44.006 32.024-44.016 50.384-101.736 50.384-158.352V379.06c0-16.78-6.54-32.578-18.422-44.492-11.884-11.882-27.688-18.43-44.492-18.43a62.542 62.542 0 0 0-32.508 9.064v-42.76c0-16.788-6.54-32.584-18.422-44.5-11.884-11.88-27.688-18.42-44.5-18.42-11.64 0-22.798 3.132-32.5 9.008v-20.508c0-16.78-6.54-32.58-18.43-44.492-11.882-11.884-27.68-18.43-44.492-18.43-34.696 0-62.922 28.226-62.922 62.92v6.228a62.536 62.536 0 0 0-32.5-9.062c-16.828 0-32.632 6.554-44.492 18.444-11.884 11.884-18.43 27.672-18.43 44.478v187.92c-21.086-24.546-57.28-31.804-86.664-15.5-33.58 18.64-45.75 61.134-27.126 94.728 9.94 17.93 12.12 60.164 12.12 75 0.014 2.468 0.56 61.11 22.944 119.156 3.016 7.836 11.82 11.734 19.656 8.712a15.2 15.2 0 0 0 8.72-19.658c-20.306-52.672-20.9-107.82-20.9-108.288 0-6.234-0.454-61.742-15.938-89.672-10.492-18.93-3.632-42.882 15.28-53.382a39.05 39.05 0 0 1 29.876-3.422 39.01 39.01 0 0 1 23.524 18.71c14.07 25.352 17.798 39.796 18.508 43.024V610a15.208 15.208 0 0 0 30.414 0l0.008-341.89c0-8.68 3.374-16.828 9.532-22.984a32.22 32.22 0 0 1 22.968-9.524c17.882 0 32.446 14.53 32.5 32.398v249.36a15.208 15.208 0 1 0 30.414 0l0.008-309.336c0-17.922 14.586-32.5 32.508-32.5 8.688 0 16.852 3.374 22.976 9.508a32.354 32.354 0 0 1 9.524 22.992v293.804a15.2 15.2 0 0 0 15.202 15.204c8.4 0 15.212-6.806 15.212-15.204V282.562c0-0.046 0.008-0.086 0.008-0.116a32.28 32.28 0 0 1 9.516-22.992c6.132-6.134 14.296-9.516 22.984-9.516s16.852 3.382 22.976 9.508a32.348 32.348 0 0 1 9.532 23v239.35a15.208 15.208 0 1 0 30.414 0V379.14v-0.078c0-17.92 14.586-32.5 32.508-32.5a32.28 32.28 0 0 1 22.976 9.5c6.14 6.164 9.524 14.328 9.524 23V606.94c0 49.594-16.658 102.1-44.564 140.46-21.968 30.196-61.06 66.188-122.56 66.188h-142.12c-40.296 0-71.71-15.18-96.046-46.4a15.214 15.214 0 0 0-21.344-2.646 15.216 15.216 0 0 0-2.648 21.342c16.632 21.336 36.438 36.828 59.204 46.43v97.97H178.414V30.414h28.204V181.82a15.192 15.192 0 0 0 8.85 13.812c5.4 2.486 11.742 1.602 16.25-2.264l54.844-47.016 54.844 47.016a15.216 15.216 0 0 0 16.25 2.264 15.192 15.192 0 0 0 8.852-13.812V30.414h437.828c21.868 0 39.656 17.796 39.656 39.664v95.828c0 8.4 6.812 15.204 15.212 15.204zM336.094 148.75L296.46 114.782c-2.85-2.446-6.374-3.664-9.898-3.664s-7.046 1.218-9.898 3.664L237.032 148.75V30.414h99.06z m0 0" p-id="1657"></path><path d="M432.21 901.476c-5.288 3.806-7.554 10.9-5.492 17.07 2.056 6.172 7.93 10.44 14.44 10.44 7.42 0 13.952-5.62 15.038-12.98 1.914-13.052-13.266-22.24-23.986-14.53z m0 0" p-id="1658"></path></svg>