<svg t="1587972034661" class="icon" viewBox="0 0 1024 1024" version="1.1" xmlns="http://www.w3.org/2000/svg" p-id="995" width="200" height="200"><path d="M512.112757 122.93911c248.815678 0 450.530445 201.714768 450.530445 450.530445s-201.714768 450.530445-450.530445 450.530445S61.582312 822.285232 61.582312 573.469555 263.297079 122.93911 512.112757 122.93911z m0 81.914626a368.615819 368.615819 0 1 0 0 737.231638 368.615819 368.615819 0 0 0 0-737.231638zM256.252421 14.074571a40.957313 40.957313 0 0 1-0.204786 54.145568l-3.686159 3.645201-163.829252 143.350596A40.957313 40.957313 0 0 1 30.987199 157.179423l3.686158-3.6452 163.829253-143.350597a40.957313 40.957313 0 0 1 57.749811 3.890945z m511.720671 0A40.957313 40.957313 0 0 1 825.845776 10.183626l163.829253 143.350597 3.645201 3.6452a40.957313 40.957313 0 0 1-57.585983 58.036513l-163.829253-143.350596-3.686158-3.645201a40.957313 40.957313 0 0 1-0.204786-54.145568z" fill="#4C4A4A" p-id="996"></path><path d="M376.216392 543.488802a40.957313 40.957313 0 1 0-55.865776 59.961506l131.923506 122.87194a40.957313 40.957313 0 0 0 57.463111-1.638293l235.996038-245.743879a40.957313 40.957313 0 0 0-59.101403-56.725879l-208.063151 216.664187-102.393283-95.389582z" fill="#E02020" p-id="997"></path></svg>