<?xml version="1.0" standalone="no"?><!DOCTYPE svg PUBLIC "-//W3C//DTD SVG 1.1//EN" "http://www.w3.org/Graphics/SVG/1.1/DTD/svg11.dtd"><svg t="1597389688711" class="icon" viewBox="0 0 1024 1024" version="1.1" xmlns="http://www.w3.org/2000/svg" p-id="4001" xmlns:xlink="http://www.w3.org/1999/xlink" width="200" height="200"><defs><style type="text/css"></style></defs><path d="M135.9 516.4c-11.6 0-21-9.4-21-21V202.2c0-55.5 45.1-100.6 100.6-100.6h596.9c55.5 0 100.6 45.1 100.6 100.6v290.6c0 11.6-9.4 21-21 21s-21-9.4-21-21V202.2c0-32.3-26.3-58.6-58.6-58.6h-597c-32.3 0-58.6 26.3-58.6 58.6v293.2c0.1 11.6-9.3 21-20.9 21z" fill="" p-id="4002"></path><path d="M891.4 884.8c-11.1 0-20.1-9-20.1-20.1 0-94.8-74.3-177.6-165.5-184.6-10.3-0.8-18.3-9.3-18.5-19.6-0.2-10.3 7.4-19.1 17.7-20.4 49.6-6 87.1-47.9 87.1-97.6 0-54.5-44.4-98.9-98.9-98.9-11.1 0-20.1-9-20.1-20.1s9-20.1 20.1-20.1c76.7 0 139 62.4 139 139.1 0 46.4-23.1 88-59 113.2 80.3 34 138.4 116.8 138.4 209-0.1 11.1-9.1 20.1-20.2 20.1zM131.2 884.8c-11.1 0-20.1-9-20.1-20.1 0-92.2 58-175 138.4-209-36-25.2-59.1-66.8-59.1-113.2 0-76.7 62.4-139.1 139-139.1 11.1 0 20.1 9 20.1 20.1s-9 20.1-20.1 20.1c-54.5 0-98.9 44.4-98.9 98.9 0 49.6 37.4 91.6 87.1 97.6 10.3 1.2 17.9 10.1 17.7 20.4-0.2 10.3-8.2 18.8-18.5 19.6-91.3 7-165.5 89.8-165.5 184.6 0 11.1-9 20.1-20.1 20.1z" fill="" p-id="4003"></path><path d="M599.6 664.8c44.7-28.2 74.5-78.1 74.5-134.7 0-87.8-71.4-159.2-159.2-159.2-87.8 0-159.2 71.4-159.2 159.2 0 56.7 29.8 106.5 74.5 134.7-97 34.8-166.6 127.8-166.6 236.6 0 11.6 9.4 21 21 21s21-9.4 21-21c0-115.4 93.9-209.3 209.3-209.3S724.2 786 724.2 901.4c0 11.6 9.4 21 21 21s21-9.4 21-21c0-108.9-69.6-201.8-166.6-236.6zM397.7 530c0-64.6 52.6-117.2 117.2-117.2S632.1 465.4 632.1 530s-52.6 117.2-117.2 117.2c-64.7 0-117.2-52.6-117.2-117.2z" fill="" p-id="4004"></path></svg>