<?xml version="1.0" standalone="no"?><!DOCTYPE svg PUBLIC "-//W3C//DTD SVG 1.1//EN" "http://www.w3.org/Graphics/SVG/1.1/DTD/svg11.dtd"><svg t="1597389961859" class="icon" viewBox="0 0 1024 1024" version="1.1" xmlns="http://www.w3.org/2000/svg" p-id="2834" xmlns:xlink="http://www.w3.org/1999/xlink" width="200" height="200"><defs><style type="text/css"></style></defs><path d="M341.333333 853.333333H173.226667a360.533333 360.533333 0 0 1 355.84-320.426666 351.146667 351.146667 0 0 1 98.986666 14.08 42.666667 42.666667 0 0 0 25.6-81.066667A208.213333 208.213333 0 0 0 725.333333 309.333333a209.92 209.92 0 1 0-419.413333 0A207.786667 207.786667 0 0 0 384 472.32 448.853333 448.853333 0 0 0 85.333333 896a42.666667 42.666667 0 0 0 42.666667 42.666667h213.333333a42.666667 42.666667 0 0 0 0-85.333334z m174.08-668.586666a124.586667 124.586667 0 1 1-124.16 124.586666 124.586667 124.586667 0 0 1 124.16-124.586666z" p-id="2835"></path><path d="M964.693333 606.72l-120.746666-120.746667a42.666667 42.666667 0 0 0-60.586667 0l-301.653333 301.653334a44.8 44.8 0 0 0-12.373334 30.293333V938.666667a42.666667 42.666667 0 0 0 42.666667 42.666666h120.746667a44.8 44.8 0 0 0 30.293333-12.373333l301.653333-301.653333a42.666667 42.666667 0 0 0 0-60.586667zM614.826667 896H554.666667v-60.16l258.986666-259.413333 60.586667 60.586666z" p-id="2836"></path></svg>