<?xml version="1.0" standalone="no"?><!DOCTYPE svg PUBLIC "-//W3C//DTD SVG 1.1//EN" "http://www.w3.org/Graphics/SVG/1.1/DTD/svg11.dtd"><svg t="1597389981998" class="icon" viewBox="0 0 1024 1024" version="1.1" xmlns="http://www.w3.org/2000/svg" p-id="3736" xmlns:xlink="http://www.w3.org/1999/xlink" width="200" height="200"><defs><style type="text/css"></style></defs><path d="M512 64c247.424 0 448 200.576 448 448S759.424 960 512 960 64 759.424 64 512 264.576 64 512 64z m0 48C291.0864 112 112 291.0864 112 512s179.0864 400 400 400 400-179.0864 400-400S732.9136 112 512 112z m101.3008 173.7008c71.8992 0 130.4 54.0992 130.4 121 0 20.8-6 41.2-16.9008 59.4992-16.4 26.8-42.7008 46.6-74.4 56-8.9008 2.5008-14.9008 3.5008-20.8 3.5008-13.9008 0-24.8-10.9008-24.8-24.8 0-13.9008 10.9008-24.8 24.8-24.8 1 0 3 0 5.5008-1 21.2992-6.4 38.2-18.9008 47.6-34.7008 6.4-10.4 9.4-21.8 9.4-33.7008 0-39.2-36.2-71.4-80.8-71.4-15.4 0-30.3008 4-43.7008 11.4-23.3008 13.4-37.2 35.7008-37.2 60V614c0 42.2-23.3008 80.9008-62 102.7008-20.5008 12.4992-43.8 18.4992-67.6 18.4992-71.9008 0-130.4-54.1008-130.4-121 0-20.8 6-41.2 16.9008-59.5008 16.4-26.8 42.6992-46.6 74.4-56 8.4-2.4992 14.8992-3.4992 20.8-3.4992 13.8992 0 24.8 10.9008 24.8 24.8 0 13.9008-10.9008 24.8-24.8 24.8-1 0-3 0-5.5008 1-21.3008 6-38.2 18.4-47.6 34.7008-6.5008 10.4-9.4 21.8-9.4 33.6992 0 39.2 36.2 71.4 80.4 71.4 15.4 0 30.3008-4 43.7008-11.4 23.2992-13.4 37.2-35.7008 37.2-60V406.2992c0-42.2 23.2992-80.8 62-102.6992 20.8-11.9008 44.0992-17.9008 68-17.9008z" fill="#979797" p-id="3737"></path></svg>